<mxfile host="app.diagrams.net" modified="2021-09-26T05:23:53.451Z" agent="5.0 (Windows NT 10.0; Win64; x64) AppleWebKit/537.36 (KHTML, like Gecko) Chrome/94.0.4606.61 Safari/537.36" etag="sjTD27n-5afmqavR_ICo" version="15.3.1" type="github">
  <diagram id="s2rgSWj9j16v0FCGX9V-" name="Page-1">
    <mxGraphModel dx="1022" dy="468" grid="1" gridSize="10" guides="1" tooltips="1" connect="1" arrows="1" fold="1" page="1" pageScale="1" pageWidth="900" pageHeight="1600" math="0" shadow="0">
      <root>
        <mxCell id="0" />
        <mxCell id="1" parent="0" />
        <mxCell id="Ub513GzquWTHj9h1OdW3-1" value="메인 페이지" style="rounded=1;whiteSpace=wrap;html=1;" parent="1" vertex="1">
          <mxGeometry x="841" y="10" width="120" height="60" as="geometry" />
        </mxCell>
        <mxCell id="KO9Z9Ivm0-aq9Z-sdD83-1" value="" style="endArrow=classic;html=1;" edge="1" parent="1">
          <mxGeometry width="50" height="50" relative="1" as="geometry">
            <mxPoint x="900.5" y="70" as="sourcePoint" />
            <mxPoint x="900.5" y="140" as="targetPoint" />
          </mxGeometry>
        </mxCell>
        <mxCell id="KO9Z9Ivm0-aq9Z-sdD83-2" value="클래스" style="rounded=0;whiteSpace=wrap;html=1;" vertex="1" parent="1">
          <mxGeometry x="853.5" y="143" width="95" height="30" as="geometry" />
        </mxCell>
        <mxCell id="KO9Z9Ivm0-aq9Z-sdD83-3" value="" style="endArrow=none;html=1;entryX=0.5;entryY=1;entryDx=0;entryDy=0;" edge="1" parent="1" target="KO9Z9Ivm0-aq9Z-sdD83-2">
          <mxGeometry width="50" height="50" relative="1" as="geometry">
            <mxPoint x="901" y="220" as="sourcePoint" />
            <mxPoint x="921" y="170" as="targetPoint" />
          </mxGeometry>
        </mxCell>
        <mxCell id="KO9Z9Ivm0-aq9Z-sdD83-4" value="원데이 클래스" style="rhombus;whiteSpace=wrap;html=1;" vertex="1" parent="1">
          <mxGeometry x="254" y="270" width="130" height="40" as="geometry" />
        </mxCell>
        <mxCell id="KO9Z9Ivm0-aq9Z-sdD83-5" value="VOD 클래스" style="rhombus;whiteSpace=wrap;html=1;" vertex="1" parent="1">
          <mxGeometry x="982" y="270" width="130" height="40" as="geometry" />
        </mxCell>
        <mxCell id="KO9Z9Ivm0-aq9Z-sdD83-6" value="" style="endArrow=none;html=1;" edge="1" parent="1">
          <mxGeometry width="50" height="50" relative="1" as="geometry">
            <mxPoint x="320" y="220" as="sourcePoint" />
            <mxPoint x="1480" y="220" as="targetPoint" />
          </mxGeometry>
        </mxCell>
        <mxCell id="KO9Z9Ivm0-aq9Z-sdD83-7" value="" style="endArrow=classic;html=1;" edge="1" parent="1">
          <mxGeometry width="50" height="50" relative="1" as="geometry">
            <mxPoint x="319" y="220" as="sourcePoint" />
            <mxPoint x="319" y="269" as="targetPoint" />
          </mxGeometry>
        </mxCell>
        <mxCell id="KO9Z9Ivm0-aq9Z-sdD83-10" value="" style="endArrow=classic;html=1;" edge="1" parent="1">
          <mxGeometry width="50" height="50" relative="1" as="geometry">
            <mxPoint x="1047.5" y="221" as="sourcePoint" />
            <mxPoint x="1047.5" y="270" as="targetPoint" />
          </mxGeometry>
        </mxCell>
        <mxCell id="KO9Z9Ivm0-aq9Z-sdD83-13" value="인기순으로 정렬" style="rounded=0;whiteSpace=wrap;html=1;" vertex="1" parent="1">
          <mxGeometry x="449" y="365" width="110" height="30" as="geometry" />
        </mxCell>
        <mxCell id="KO9Z9Ivm0-aq9Z-sdD83-15" value="필터링" style="rhombus;whiteSpace=wrap;html=1;" vertex="1" parent="1">
          <mxGeometry x="254" y="360" width="130" height="40" as="geometry" />
        </mxCell>
        <mxCell id="KO9Z9Ivm0-aq9Z-sdD83-17" value="" style="endArrow=classic;html=1;" edge="1" parent="1">
          <mxGeometry width="50" height="50" relative="1" as="geometry">
            <mxPoint x="318.5" y="310" as="sourcePoint" />
            <mxPoint x="318.5" y="359" as="targetPoint" />
          </mxGeometry>
        </mxCell>
        <mxCell id="KO9Z9Ivm0-aq9Z-sdD83-18" value="" style="endArrow=classic;html=1;exitX=1;exitY=0.5;exitDx=0;exitDy=0;" edge="1" parent="1" source="KO9Z9Ivm0-aq9Z-sdD83-15">
          <mxGeometry width="50" height="50" relative="1" as="geometry">
            <mxPoint x="409" y="380" as="sourcePoint" />
            <mxPoint x="449" y="380" as="targetPoint" />
          </mxGeometry>
        </mxCell>
        <mxCell id="KO9Z9Ivm0-aq9Z-sdD83-21" value="No" style="text;html=1;strokeColor=none;fillColor=none;align=center;verticalAlign=middle;whiteSpace=wrap;rounded=0;" vertex="1" parent="1">
          <mxGeometry x="390" y="350" width="40" height="20" as="geometry" />
        </mxCell>
      </root>
    </mxGraphModel>
  </diagram>
</mxfile>
